<svg width="404" height="367" viewBox="0 0 404 367" fill="none" xmlns="http://www.w3.org/2000/svg">
<g filter="url(#filter0_bdd_2_609)">
<mask id="path-1-inside-1_2_609" fill="white">
<path fill-rule="evenodd" clip-rule="evenodd" d="M212.019 38.1374C215.456 37.5276 217.545 41.5962 215.735 44.5815C206.264 60.2017 204.89 80.2293 213.858 97.6643C225.797 120.874 252.132 131.847 276.348 125.286C279.721 124.372 283.054 127.51 281.513 130.646C275.585 142.715 265.865 153.051 252.989 159.674C221.141 176.056 182.043 163.518 165.662 131.67C149.28 99.822 161.818 60.7242 193.666 44.3426C199.597 41.292 205.779 39.2443 212.019 38.1374Z"/>
</mask>
<path fill-rule="evenodd" clip-rule="evenodd" d="M212.019 38.1374C215.456 37.5276 217.545 41.5962 215.735 44.5815C206.264 60.2017 204.89 80.2293 213.858 97.6643C225.797 120.874 252.132 131.847 276.348 125.286C279.721 124.372 283.054 127.51 281.513 130.646C275.585 142.715 265.865 153.051 252.989 159.674C221.141 176.056 182.043 163.518 165.662 131.67C149.28 99.822 161.818 60.7242 193.666 44.3426C199.597 41.292 205.779 39.2443 212.019 38.1374Z" fill="url(#paint0_linear_2_609)"/>
<path d="M276.348 125.286L276.871 127.216L276.348 125.286ZM281.513 130.646L279.718 129.764L281.513 130.646ZM212.019 38.1374L212.368 40.1066L212.019 38.1374ZM215.637 96.7495C207 79.9582 208.32 60.669 217.445 45.6184L214.025 43.5445C204.208 59.7344 202.781 80.5005 212.08 98.5792L215.637 96.7495ZM275.825 123.356C252.5 129.675 227.135 119.103 215.637 96.7495L212.08 98.5792C224.459 122.646 251.763 134.019 276.871 127.216L275.825 123.356ZM279.718 129.764C273.973 141.461 264.555 151.476 252.074 157.896L253.904 161.453C267.175 154.626 277.197 143.969 283.308 131.527L279.718 129.764ZM252.074 157.896C221.208 173.772 183.316 161.621 167.44 130.755L163.883 132.585C180.77 165.415 221.074 178.34 253.904 161.453L252.074 157.896ZM167.44 130.755C151.564 99.8895 163.715 61.9975 194.581 46.1211L192.751 42.5641C159.921 59.4509 146.996 99.7546 163.883 132.585L167.44 130.755ZM194.581 46.1211C200.332 43.163 206.323 41.179 212.368 40.1066L211.669 36.1681C205.235 37.3096 198.862 39.421 192.751 42.5641L194.581 46.1211ZM276.871 127.216C277.825 126.958 278.773 127.275 279.359 127.862C279.908 128.411 280.057 129.075 279.718 129.764L283.308 131.527C284.51 129.08 283.762 126.608 282.187 125.033C280.649 123.495 278.244 122.7 275.825 123.356L276.871 127.216ZM217.445 45.6184C218.743 43.477 218.646 40.9476 217.595 39.0446C216.519 37.0958 214.352 35.6922 211.669 36.1681L212.368 40.1066C213.123 39.9728 213.719 40.2986 214.094 40.978C214.494 41.7032 214.536 42.7006 214.025 43.5445L217.445 45.6184Z" fill="url(#paint1_linear_2_609)" mask="url(#path-1-inside-1_2_609)"/>
</g>
<mask id="mask0_2_609" style="mask-type:alpha" maskUnits="userSpaceOnUse" x="185" y="120" width="118" height="85">
<path d="M303 146C303 178.585 276.585 205 244 205C211.415 205 185 178.585 185 146C185 113.415 206.915 121 239.5 121C272.085 121 303 113.415 303 146Z" fill="url(#paint2_linear_2_609)"/>
</mask>
<g mask="url(#mask0_2_609)">
<g filter="url(#filter1_f_2_609)">
<path fill-rule="evenodd" clip-rule="evenodd" d="M139.502 296.997C139.335 296.999 139.168 297 139 297C115.252 297 96 277.748 96 254C96 230.252 115.252 211 139 211C159.47 211 176.6 225.304 180.938 244.462L195.5 226L241 211H290.5V211.003C290.666 211.001 290.833 211 291 211C314.748 211 334 230.252 334 254C334 277.748 314.748 297 291 297C290.833 297 290.666 296.999 290.5 296.997V297H139.5L139.502 296.997Z" fill="#E18700"/>
</g>
</g>
<g filter="url(#filter2_bd_2_609)">
<mask id="path-5-inside-2_2_609" fill="white">
<path fill-rule="evenodd" clip-rule="evenodd" d="M265.5 301.997C265.666 301.999 265.833 302 266 302C289.748 302 309 282.748 309 259C309 235.252 289.748 216 266 216C265.833 216 265.666 216.001 265.5 216.003V216H254.391C254.793 213.057 255 210.053 255 207C255 170.549 225.451 141 189 141C152.549 141 123 170.549 123 207C123 210.439 123.263 213.817 123.77 217.115C120.631 216.386 117.361 216 114 216C90.2518 216 71 235.252 71 259C71 282.748 90.2518 302 114 302C114.168 302 114.335 301.999 114.502 301.997L114.5 302H265.5V301.997Z"/>
</mask>
<path fill-rule="evenodd" clip-rule="evenodd" d="M265.5 301.997C265.666 301.999 265.833 302 266 302C289.748 302 309 282.748 309 259C309 235.252 289.748 216 266 216C265.833 216 265.666 216.001 265.5 216.003V216H254.391C254.793 213.057 255 210.053 255 207C255 170.549 225.451 141 189 141C152.549 141 123 170.549 123 207C123 210.439 123.263 213.817 123.77 217.115C120.631 216.386 117.361 216 114 216C90.2518 216 71 235.252 71 259C71 282.748 90.2518 302 114 302C114.168 302 114.335 301.999 114.502 301.997L114.5 302H265.5V301.997Z" fill="url(#paint3_linear_2_609)" shape-rendering="crispEdges"/>
<path d="M265.5 301.997L265.523 299.997C264.988 299.991 264.474 300.199 264.094 300.575C263.714 300.951 263.5 301.463 263.5 301.997H265.5ZM265.5 216.003H263.5C263.5 216.537 263.714 217.049 264.094 217.425C264.474 217.801 264.988 218.009 265.523 218.003L265.5 216.003ZM265.5 216H267.5C267.5 214.895 266.605 214 265.5 214V216ZM254.391 216L252.41 215.73C252.332 216.302 252.505 216.88 252.885 217.315C253.265 217.75 253.814 218 254.391 218V216ZM123.77 217.115L123.318 219.063C123.964 219.213 124.643 219.033 125.13 218.582C125.617 218.13 125.848 217.467 125.747 216.811L123.77 217.115ZM114.502 301.997L116.072 303.237C116.549 302.632 116.637 301.807 116.297 301.115C115.957 300.423 115.25 299.988 114.479 299.997L114.502 301.997ZM114.5 302L112.931 300.76C112.455 301.362 112.366 302.182 112.7 302.872C113.034 303.562 113.733 304 114.5 304V302ZM265.5 302V304C266.605 304 267.5 303.105 267.5 302H265.5ZM265.477 303.997C265.651 303.999 265.825 304 266 304V300C265.841 300 265.682 299.999 265.523 299.997L265.477 303.997ZM266 304C290.853 304 311 283.853 311 259H307C307 281.644 288.644 300 266 300V304ZM311 259C311 234.147 290.853 214 266 214V218C288.644 218 307 236.356 307 259H311ZM266 214C265.826 214 265.651 214.001 265.477 214.003L265.523 218.003C265.682 218.001 265.841 218 266 218V214ZM263.5 216V216.003H267.5V216H263.5ZM254.391 218H265.5V214H254.391V218ZM256.373 216.27C256.787 213.238 257 210.143 257 207H253C253 209.962 252.799 212.876 252.41 215.73L256.373 216.27ZM257 207C257 169.445 226.555 139 189 139V143C224.346 143 253 171.654 253 207H257ZM189 139C151.445 139 121 169.445 121 207H125C125 171.654 153.654 143 189 143V139ZM121 207C121 210.542 121.271 214.021 121.793 217.419L125.747 216.811C125.255 213.614 125 210.337 125 207H121ZM124.223 215.167C120.937 214.403 117.514 214 114 214V218C117.207 218 120.326 218.368 123.318 219.063L124.223 215.167ZM114 214C89.1472 214 69 234.147 69 259H73C73 236.356 91.3563 218 114 218V214ZM69 259C69 283.853 89.1472 304 114 304V300C91.3563 300 73 281.644 73 259H69ZM114 304C114.175 304 114.35 303.999 114.525 303.997L114.479 299.997C114.32 299.999 114.16 300 114 300V304ZM116.069 303.24L116.072 303.237L112.933 300.757L112.931 300.76L116.069 303.24ZM265.5 300H114.5V304H265.5V300ZM263.5 301.997V302H267.5V301.997H263.5Z" fill="url(#paint4_linear_2_609)" mask="url(#path-5-inside-2_2_609)"/>
</g>
<g filter="url(#filter3_bd_2_609)">
<mask id="path-7-inside-3_2_609" fill="white">
<path fill-rule="evenodd" clip-rule="evenodd" d="M343.563 257.351C343.683 257.352 343.804 257.353 343.924 257.353C361.087 257.353 375 243.44 375 226.277C375 209.115 361.087 195.202 343.924 195.202C343.804 195.202 343.683 195.202 343.563 195.204V195.202H335.535C335.825 193.075 335.975 190.904 335.975 188.697C335.975 162.355 314.62 141 288.277 141C261.935 141 240.58 162.355 240.58 188.697C240.58 191.183 240.77 193.624 241.136 196.007C238.868 195.48 236.504 195.202 234.076 195.202C216.913 195.202 203 209.115 203 226.277C203 243.44 216.913 257.353 234.076 257.353C234.197 257.353 234.318 257.352 234.439 257.351L234.437 257.353H343.563V257.351Z"/>
</mask>
<path fill-rule="evenodd" clip-rule="evenodd" d="M343.563 257.351C343.683 257.352 343.804 257.353 343.924 257.353C361.087 257.353 375 243.44 375 226.277C375 209.115 361.087 195.202 343.924 195.202C343.804 195.202 343.683 195.202 343.563 195.204V195.202H335.535C335.825 193.075 335.975 190.904 335.975 188.697C335.975 162.355 314.62 141 288.277 141C261.935 141 240.58 162.355 240.58 188.697C240.58 191.183 240.77 193.624 241.136 196.007C238.868 195.48 236.504 195.202 234.076 195.202C216.913 195.202 203 209.115 203 226.277C203 243.44 216.913 257.353 234.076 257.353C234.197 257.353 234.318 257.352 234.439 257.351L234.437 257.353H343.563V257.351Z" fill="url(#paint5_linear_2_609)" shape-rendering="crispEdges"/>
<path d="M343.563 257.351L343.586 255.351C343.052 255.345 342.537 255.553 342.157 255.929C341.777 256.304 341.563 256.816 341.563 257.351H343.563ZM343.563 195.204H341.563C341.563 195.738 341.777 196.25 342.157 196.626C342.537 197.002 343.051 197.21 343.586 197.204L343.563 195.204ZM343.563 195.202H345.563C345.563 194.097 344.668 193.202 343.563 193.202V195.202ZM335.535 195.202L333.553 194.931C333.475 195.504 333.649 196.082 334.028 196.517C334.408 196.952 334.957 197.202 335.535 197.202V195.202ZM241.136 196.007L240.684 197.955C241.33 198.106 242.009 197.925 242.496 197.474C242.983 197.023 243.214 196.359 243.113 195.703L241.136 196.007ZM234.439 257.351L236.008 258.59C236.486 257.985 236.573 257.16 236.233 256.468C235.893 255.777 235.186 255.342 234.416 255.351L234.439 257.351ZM234.437 257.353L232.867 256.114C232.392 256.715 232.303 257.535 232.637 258.225C232.971 258.915 233.67 259.353 234.437 259.353V257.353ZM343.563 257.353V259.353C344.668 259.353 345.563 258.458 345.563 257.353H343.563ZM343.54 259.351C343.668 259.352 343.796 259.353 343.924 259.353V255.353C343.811 255.353 343.699 255.352 343.586 255.351L343.54 259.351ZM343.924 259.353C362.192 259.353 377 244.544 377 226.277H373C373 242.335 359.982 255.353 343.924 255.353V259.353ZM377 226.277C377 208.01 362.192 193.202 343.924 193.202V197.202C359.982 197.202 373 210.219 373 226.277H377ZM343.924 193.202C343.796 193.202 343.668 193.202 343.54 193.204L343.586 197.204C343.698 197.202 343.811 197.202 343.924 197.202V193.202ZM341.563 195.202V195.204H345.563V195.202H341.563ZM335.535 197.202H343.563V193.202H335.535V197.202ZM337.517 195.472C337.819 193.256 337.975 190.994 337.975 188.697H333.975C333.975 190.813 333.831 192.894 333.553 194.931L337.517 195.472ZM337.975 188.697C337.975 161.25 315.724 139 288.277 139V143C313.515 143 333.975 163.459 333.975 188.697H337.975ZM288.277 139C260.83 139 238.58 161.25 238.58 188.697H242.58C242.58 163.459 263.039 143 288.277 143V139ZM238.58 188.697C238.58 191.285 238.778 193.828 239.16 196.311L243.113 195.703C242.762 193.421 242.58 191.081 242.58 188.697H238.58ZM241.589 194.059C239.173 193.498 236.658 193.202 234.076 193.202V197.202C236.351 197.202 238.563 197.463 240.684 197.955L241.589 194.059ZM234.076 193.202C215.808 193.202 201 208.01 201 226.277H205C205 210.219 218.018 197.202 234.076 197.202V193.202ZM201 226.277C201 244.544 215.808 259.353 234.076 259.353V255.353C218.018 255.353 205 242.335 205 226.277H201ZM234.076 259.353C234.204 259.353 234.333 259.352 234.461 259.351L234.416 255.351C234.303 255.352 234.189 255.353 234.076 255.353V259.353ZM236.007 258.592L236.008 258.59L232.869 256.112L232.867 256.114L236.007 258.592ZM343.563 255.353H234.437V259.353H343.563V255.353ZM341.563 257.351V257.353H345.563V257.351H341.563Z" fill="url(#paint6_linear_2_609)" mask="url(#path-7-inside-3_2_609)"/>
</g>
<defs>
<filter id="filter0_bdd_2_609" x="87.4668" y="0.0761719" width="232.434" height="231.793" filterUnits="userSpaceOnUse" color-interpolation-filters="sRGB">
<feFlood flood-opacity="0" result="BackgroundImageFix"/>
<feGaussianBlur in="BackgroundImage" stdDeviation="7"/>
<feComposite in2="SourceAlpha" operator="in" result="effect1_backgroundBlur_2_609"/>
<feColorMatrix in="SourceAlpha" type="matrix" values="0 0 0 0 0 0 0 0 0 0 0 0 0 0 0 0 0 0 127 0" result="hardAlpha"/>
<feOffset dx="-21" dy="15"/>
<feGaussianBlur stdDeviation="25"/>
<feComposite in2="hardAlpha" operator="out"/>
<feColorMatrix type="matrix" values="0 0 0 0 0.113438 0 0 0 0 0.148981 0 0 0 0 0.275 0 0 0 0.25 0"/>
<feBlend mode="normal" in2="effect1_backgroundBlur_2_609" result="effect2_dropShadow_2_609"/>
<feColorMatrix in="SourceAlpha" type="matrix" values="0 0 0 0 0 0 0 0 0 0 0 0 0 0 0 0 0 0 127 0" result="hardAlpha"/>
<feOffset/>
<feGaussianBlur stdDeviation="19"/>
<feComposite in2="hardAlpha" operator="out"/>
<feColorMatrix type="matrix" values="0 0 0 0 0.619608 0 0 0 0 0.423529 0 0 0 0 1 0 0 0 0.4 0"/>
<feBlend mode="normal" in2="effect2_dropShadow_2_609" result="effect3_dropShadow_2_609"/>
<feBlend mode="normal" in="SourceGraphic" in2="effect3_dropShadow_2_609" result="shape"/>
</filter>
<filter id="filter1_f_2_609" x="82" y="197" width="266" height="114" filterUnits="userSpaceOnUse" color-interpolation-filters="sRGB">
<feFlood flood-opacity="0" result="BackgroundImageFix"/>
<feBlend mode="normal" in="SourceGraphic" in2="BackgroundImageFix" result="shape"/>
<feGaussianBlur stdDeviation="7" result="effect1_foregroundBlur_2_609"/>
</filter>
<filter id="filter2_bd_2_609" x="0" y="106" width="338" height="261" filterUnits="userSpaceOnUse" color-interpolation-filters="sRGB">
<feFlood flood-opacity="0" result="BackgroundImageFix"/>
<feGaussianBlur in="BackgroundImage" stdDeviation="7"/>
<feComposite in2="SourceAlpha" operator="in" result="effect1_backgroundBlur_2_609"/>
<feColorMatrix in="SourceAlpha" type="matrix" values="0 0 0 0 0 0 0 0 0 0 0 0 0 0 0 0 0 0 127 0" result="hardAlpha"/>
<feOffset dx="-21" dy="15"/>
<feGaussianBlur stdDeviation="25"/>
<feComposite in2="hardAlpha" operator="out"/>
<feColorMatrix type="matrix" values="0 0 0 0 0.113725 0 0 0 0 0.14902 0 0 0 0 0.27451 0 0 0 0.25 0"/>
<feBlend mode="normal" in2="effect1_backgroundBlur_2_609" result="effect2_dropShadow_2_609"/>
<feBlend mode="normal" in="SourceGraphic" in2="effect2_dropShadow_2_609" result="shape"/>
</filter>
<filter id="filter3_bd_2_609" x="132" y="106" width="272" height="216.353" filterUnits="userSpaceOnUse" color-interpolation-filters="sRGB">
<feFlood flood-opacity="0" result="BackgroundImageFix"/>
<feGaussianBlur in="BackgroundImage" stdDeviation="7"/>
<feComposite in2="SourceAlpha" operator="in" result="effect1_backgroundBlur_2_609"/>
<feColorMatrix in="SourceAlpha" type="matrix" values="0 0 0 0 0 0 0 0 0 0 0 0 0 0 0 0 0 0 127 0" result="hardAlpha"/>
<feOffset dx="-21" dy="15"/>
<feGaussianBlur stdDeviation="25"/>
<feComposite in2="hardAlpha" operator="out"/>
<feColorMatrix type="matrix" values="0 0 0 0 0.113438 0 0 0 0 0.148981 0 0 0 0 0.275 0 0 0 0.25 0"/>
<feBlend mode="normal" in2="effect1_backgroundBlur_2_609" result="effect2_dropShadow_2_609"/>
<feBlend mode="normal" in="SourceGraphic" in2="effect2_dropShadow_2_609" result="shape"/>
</filter>
<linearGradient id="paint0_linear_2_609" x1="181.067" y1="52.1079" x2="240.39" y2="167.44" gradientUnits="userSpaceOnUse">
<stop offset="0.0001" stop-color="#D4C0FF"/>
<stop offset="1" stop-color="#7E2FFF"/>
</linearGradient>
<linearGradient id="paint1_linear_2_609" x1="187.197" y1="-11.14" x2="223.703" y2="140.225" gradientUnits="userSpaceOnUse">
<stop stop-color="white"/>
<stop offset="1" stop-color="white" stop-opacity="0"/>
</linearGradient>
<linearGradient id="paint2_linear_2_609" x1="244" y1="87" x2="244" y2="205" gradientUnits="userSpaceOnUse">
<stop stop-color="#FFD600"/>
<stop offset="1" stop-color="#FF7A00"/>
</linearGradient>
<linearGradient id="paint3_linear_2_609" x1="190" y1="89.5" x2="190" y2="324.5" gradientUnits="userSpaceOnUse">
<stop stop-color="white"/>
<stop offset="1" stop-color="white" stop-opacity="0"/>
</linearGradient>
<linearGradient id="paint4_linear_2_609" x1="190" y1="141" x2="190" y2="302" gradientUnits="userSpaceOnUse">
<stop stop-color="white"/>
<stop offset="1" stop-color="white" stop-opacity="0"/>
</linearGradient>
<linearGradient id="paint5_linear_2_609" x1="297" y1="144.5" x2="297" y2="270.5" gradientUnits="userSpaceOnUse">
<stop stop-color="white"/>
<stop offset="1" stop-color="white" stop-opacity="0"/>
</linearGradient>
<linearGradient id="paint6_linear_2_609" x1="289" y1="141" x2="289" y2="257.353" gradientUnits="userSpaceOnUse">
<stop stop-color="white"/>
<stop offset="1" stop-color="white" stop-opacity="0"/>
</linearGradient>
</defs>
</svg>
