<svg width="702" height="702" viewBox="0 0 702 702" fill="none" xmlns="http://www.w3.org/2000/svg">
<path d="M702 351C702 544.852 544.852 702 351 702C157.148 702 0 544.852 0 351C0 157.148 157.148 0 351 0C544.852 0 702 157.148 702 351ZM61.2204 351C61.2204 511.041 190.959 640.78 351 640.78C511.041 640.78 640.78 511.041 640.78 351C640.78 190.959 511.041 61.2204 351 61.2204C190.959 61.2204 61.2204 190.959 61.2204 351Z" fill="#923CFF" fill-opacity="0.1"/>
<path d="M702 351C702 267.669 672.353 187.057 618.362 123.583C564.371 60.1084 489.558 17.9135 407.307 4.54573L397.486 64.9733C465.391 76.0094 527.155 110.845 571.729 163.248C616.303 215.651 640.78 282.204 640.78 351H702Z" fill="white"/>
</svg>
