<svg width="404" height="328" viewBox="0 0 404 328" fill="none" xmlns="http://www.w3.org/2000/svg">
<g filter="url(#filter0_f_2_566)">
<circle cx="244" cy="105" r="61" fill="#FFC701" fill-opacity="0.5"/>
</g>
<circle cx="244" cy="107" r="58" fill="url(#paint0_linear_2_566)" stroke="url(#paint1_linear_2_566)" stroke-width="2"/>
<mask id="mask0_2_566" style="mask-type:alpha" maskUnits="userSpaceOnUse" x="185" y="81" width="118" height="85">
<path d="M303 107C303 139.585 276.585 166 244 166C211.415 166 185 139.585 185 107C185 74.4152 206.915 82 239.5 82C272.085 82 303 74.4152 303 107Z" fill="url(#paint2_linear_2_566)"/>
</mask>
<g mask="url(#mask0_2_566)">
<g filter="url(#filter1_f_2_566)">
<path fill-rule="evenodd" clip-rule="evenodd" d="M290.5 257.997C290.666 257.999 290.833 258 291 258C314.748 258 334 238.748 334 215C334 191.252 314.748 172 291 172C290.833 172 290.666 172.001 290.5 172.003V172H263.087C263.688 168.423 264 164.748 264 161C264 124.549 234.451 95 198 95C161.549 95 132 124.549 132 161C132 164.894 132.337 168.709 132.984 172.418C112.084 175.343 96 193.293 96 215C96 238.748 115.252 258 139 258C139.168 258 139.335 257.999 139.502 257.997L139.5 258H290.5V257.997Z" fill="#E18700"/>
</g>
</g>
<g filter="url(#filter2_bd_2_566)">
<mask id="path-5-inside-1_2_566" fill="white">
<path fill-rule="evenodd" clip-rule="evenodd" d="M265.5 262.997C265.666 262.999 265.833 263 266 263C289.748 263 309 243.748 309 220C309 196.252 289.748 177 266 177C265.833 177 265.666 177.001 265.5 177.003V177H254.391C254.793 174.057 255 171.053 255 168C255 131.549 225.451 102 189 102C152.549 102 123 131.549 123 168C123 171.439 123.263 174.817 123.77 178.115C120.631 177.386 117.361 177 114 177C90.2518 177 71 196.252 71 220C71 243.748 90.2518 263 114 263C114.168 263 114.335 262.999 114.502 262.997L114.5 263H265.5V262.997Z"/>
</mask>
<path fill-rule="evenodd" clip-rule="evenodd" d="M265.5 262.997C265.666 262.999 265.833 263 266 263C289.748 263 309 243.748 309 220C309 196.252 289.748 177 266 177C265.833 177 265.666 177.001 265.5 177.003V177H254.391C254.793 174.057 255 171.053 255 168C255 131.549 225.451 102 189 102C152.549 102 123 131.549 123 168C123 171.439 123.263 174.817 123.77 178.115C120.631 177.386 117.361 177 114 177C90.2518 177 71 196.252 71 220C71 243.748 90.2518 263 114 263C114.168 263 114.335 262.999 114.502 262.997L114.5 263H265.5V262.997Z" fill="url(#paint3_linear_2_566)" shape-rendering="crispEdges"/>
<path d="M265.5 262.997L265.523 260.997C264.988 260.991 264.474 261.199 264.094 261.575C263.714 261.951 263.5 262.463 263.5 262.997H265.5ZM265.5 177.003H263.5C263.5 177.537 263.714 178.049 264.094 178.425C264.474 178.801 264.988 179.009 265.523 179.003L265.5 177.003ZM265.5 177H267.5C267.5 175.895 266.605 175 265.5 175V177ZM254.391 177L252.41 176.73C252.332 177.302 252.505 177.88 252.885 178.315C253.265 178.75 253.814 179 254.391 179V177ZM123.77 178.115L123.318 180.063C123.964 180.213 124.643 180.033 125.13 179.582C125.617 179.13 125.848 178.467 125.747 177.811L123.77 178.115ZM114.502 262.997L116.072 264.237C116.549 263.632 116.637 262.807 116.297 262.115C115.957 261.423 115.25 260.988 114.479 260.997L114.502 262.997ZM114.5 263L112.931 261.76C112.455 262.362 112.366 263.182 112.7 263.872C113.034 264.562 113.733 265 114.5 265V263ZM265.5 263V265C266.605 265 267.5 264.105 267.5 263H265.5ZM265.477 264.997C265.651 264.999 265.825 265 266 265V261C265.841 261 265.682 260.999 265.523 260.997L265.477 264.997ZM266 265C290.853 265 311 244.853 311 220H307C307 242.644 288.644 261 266 261V265ZM311 220C311 195.147 290.853 175 266 175V179C288.644 179 307 197.356 307 220H311ZM266 175C265.826 175 265.651 175.001 265.477 175.003L265.523 179.003C265.682 179.001 265.841 179 266 179V175ZM263.5 177V177.003H267.5V177H263.5ZM254.391 179H265.5V175H254.391V179ZM256.373 177.27C256.787 174.238 257 171.143 257 168H253C253 170.962 252.799 173.876 252.41 176.73L256.373 177.27ZM257 168C257 130.445 226.555 100 189 100V104C224.346 104 253 132.654 253 168H257ZM189 100C151.445 100 121 130.445 121 168H125C125 132.654 153.654 104 189 104V100ZM121 168C121 171.542 121.271 175.021 121.793 178.419L125.747 177.811C125.255 174.614 125 171.337 125 168H121ZM124.223 176.167C120.937 175.403 117.514 175 114 175V179C117.207 179 120.326 179.368 123.318 180.063L124.223 176.167ZM114 175C89.1472 175 69 195.147 69 220H73C73 197.356 91.3563 179 114 179V175ZM69 220C69 244.853 89.1472 265 114 265V261C91.3563 261 73 242.644 73 220H69ZM114 265C114.175 265 114.35 264.999 114.525 264.997L114.479 260.997C114.32 260.999 114.16 261 114 261V265ZM116.069 264.24L116.072 264.237L112.933 261.757L112.931 261.76L116.069 264.24ZM265.5 261H114.5V265H265.5V261ZM263.5 262.997V263H267.5V262.997H263.5Z" fill="url(#paint4_linear_2_566)" mask="url(#path-5-inside-1_2_566)"/>
</g>
<g filter="url(#filter3_bd_2_566)">
<mask id="path-7-inside-2_2_566" fill="white">
<path fill-rule="evenodd" clip-rule="evenodd" d="M343.563 218.351C343.683 218.352 343.804 218.353 343.924 218.353C361.087 218.353 375 204.44 375 187.277C375 170.115 361.087 156.202 343.924 156.202C343.804 156.202 343.683 156.202 343.563 156.204V156.202H335.535C335.825 154.075 335.975 151.904 335.975 149.697C335.975 123.355 314.62 102 288.277 102C261.935 102 240.58 123.355 240.58 149.697C240.58 152.183 240.77 154.624 241.136 157.007C238.868 156.48 236.504 156.202 234.076 156.202C216.913 156.202 203 170.115 203 187.277C203 204.44 216.913 218.353 234.076 218.353C234.197 218.353 234.318 218.352 234.439 218.351L234.437 218.353H343.563V218.351Z"/>
</mask>
<path fill-rule="evenodd" clip-rule="evenodd" d="M343.563 218.351C343.683 218.352 343.804 218.353 343.924 218.353C361.087 218.353 375 204.44 375 187.277C375 170.115 361.087 156.202 343.924 156.202C343.804 156.202 343.683 156.202 343.563 156.204V156.202H335.535C335.825 154.075 335.975 151.904 335.975 149.697C335.975 123.355 314.62 102 288.277 102C261.935 102 240.58 123.355 240.58 149.697C240.58 152.183 240.77 154.624 241.136 157.007C238.868 156.48 236.504 156.202 234.076 156.202C216.913 156.202 203 170.115 203 187.277C203 204.44 216.913 218.353 234.076 218.353C234.197 218.353 234.318 218.352 234.439 218.351L234.437 218.353H343.563V218.351Z" fill="url(#paint5_linear_2_566)" shape-rendering="crispEdges"/>
<path d="M343.563 218.351L343.586 216.351C343.052 216.345 342.537 216.553 342.157 216.929C341.777 217.304 341.563 217.816 341.563 218.351H343.563ZM343.563 156.204H341.563C341.563 156.738 341.777 157.25 342.157 157.626C342.537 158.002 343.051 158.21 343.586 158.204L343.563 156.204ZM343.563 156.202H345.563C345.563 155.097 344.668 154.202 343.563 154.202V156.202ZM335.535 156.202L333.553 155.931C333.475 156.504 333.649 157.082 334.028 157.517C334.408 157.952 334.957 158.202 335.535 158.202V156.202ZM241.136 157.007L240.684 158.955C241.33 159.106 242.009 158.925 242.496 158.474C242.983 158.023 243.214 157.359 243.113 156.703L241.136 157.007ZM234.439 218.351L236.008 219.59C236.486 218.985 236.573 218.16 236.233 217.468C235.893 216.777 235.186 216.342 234.416 216.351L234.439 218.351ZM234.437 218.353L232.867 217.114C232.392 217.715 232.303 218.535 232.637 219.225C232.971 219.915 233.67 220.353 234.437 220.353V218.353ZM343.563 218.353V220.353C344.668 220.353 345.563 219.458 345.563 218.353H343.563ZM343.54 220.351C343.668 220.352 343.796 220.353 343.924 220.353V216.353C343.811 216.353 343.699 216.352 343.586 216.351L343.54 220.351ZM343.924 220.353C362.192 220.353 377 205.544 377 187.277H373C373 203.335 359.982 216.353 343.924 216.353V220.353ZM377 187.277C377 169.01 362.192 154.202 343.924 154.202V158.202C359.982 158.202 373 171.219 373 187.277H377ZM343.924 154.202C343.796 154.202 343.668 154.202 343.54 154.204L343.586 158.204C343.699 158.202 343.811 158.202 343.924 158.202V154.202ZM341.563 156.202V156.204H345.563V156.202H341.563ZM335.535 158.202H343.563V154.202H335.535V158.202ZM337.517 156.472C337.819 154.256 337.975 151.994 337.975 149.697H333.975C333.975 151.813 333.831 153.894 333.553 155.931L337.517 156.472ZM337.975 149.697C337.975 122.25 315.724 100 288.277 100V104C313.515 104 333.975 124.459 333.975 149.697H337.975ZM288.277 100C260.83 100 238.58 122.25 238.58 149.697H242.58C242.58 124.459 263.039 104 288.277 104V100ZM238.58 149.697C238.58 152.285 238.778 154.828 239.16 157.311L243.113 156.703C242.762 154.421 242.58 152.081 242.58 149.697H238.58ZM241.589 155.059C239.173 154.498 236.658 154.202 234.076 154.202V158.202C236.351 158.202 238.563 158.463 240.684 158.955L241.589 155.059ZM234.076 154.202C215.808 154.202 201 169.01 201 187.277H205C205 171.219 218.018 158.202 234.076 158.202V154.202ZM201 187.277C201 205.544 215.808 220.353 234.076 220.353V216.353C218.018 216.353 205 203.335 205 187.277H201ZM234.076 220.353C234.204 220.353 234.333 220.352 234.461 220.351L234.416 216.351C234.303 216.352 234.189 216.353 234.076 216.353V220.353ZM236.007 219.592L236.008 219.59L232.869 217.112L232.867 217.114L236.007 219.592ZM343.563 216.353H234.437V220.353H343.563V216.353ZM341.563 218.351V218.353H345.563V218.351H341.563Z" fill="url(#paint6_linear_2_566)" mask="url(#path-7-inside-2_2_566)"/>
</g>
<defs>
<filter id="filter0_f_2_566" x="139" y="0" width="210" height="210" filterUnits="userSpaceOnUse" color-interpolation-filters="sRGB">
<feFlood flood-opacity="0" result="BackgroundImageFix"/>
<feBlend mode="normal" in="SourceGraphic" in2="BackgroundImageFix" result="shape"/>
<feGaussianBlur stdDeviation="22" result="effect1_foregroundBlur_2_566"/>
</filter>
<filter id="filter1_f_2_566" x="82" y="81" width="266" height="191" filterUnits="userSpaceOnUse" color-interpolation-filters="sRGB">
<feFlood flood-opacity="0" result="BackgroundImageFix"/>
<feBlend mode="normal" in="SourceGraphic" in2="BackgroundImageFix" result="shape"/>
<feGaussianBlur stdDeviation="7" result="effect1_foregroundBlur_2_566"/>
</filter>
<filter id="filter2_bd_2_566" x="0" y="67" width="338" height="261" filterUnits="userSpaceOnUse" color-interpolation-filters="sRGB">
<feFlood flood-opacity="0" result="BackgroundImageFix"/>
<feGaussianBlur in="BackgroundImage" stdDeviation="7"/>
<feComposite in2="SourceAlpha" operator="in" result="effect1_backgroundBlur_2_566"/>
<feColorMatrix in="SourceAlpha" type="matrix" values="0 0 0 0 0 0 0 0 0 0 0 0 0 0 0 0 0 0 127 0" result="hardAlpha"/>
<feOffset dx="-21" dy="15"/>
<feGaussianBlur stdDeviation="25"/>
<feComposite in2="hardAlpha" operator="out"/>
<feColorMatrix type="matrix" values="0 0 0 0 0.113725 0 0 0 0 0.14902 0 0 0 0 0.27451 0 0 0 0.25 0"/>
<feBlend mode="normal" in2="effect1_backgroundBlur_2_566" result="effect2_dropShadow_2_566"/>
<feBlend mode="normal" in="SourceGraphic" in2="effect2_dropShadow_2_566" result="shape"/>
</filter>
<filter id="filter3_bd_2_566" x="132" y="67" width="272" height="216.353" filterUnits="userSpaceOnUse" color-interpolation-filters="sRGB">
<feFlood flood-opacity="0" result="BackgroundImageFix"/>
<feGaussianBlur in="BackgroundImage" stdDeviation="7"/>
<feComposite in2="SourceAlpha" operator="in" result="effect1_backgroundBlur_2_566"/>
<feColorMatrix in="SourceAlpha" type="matrix" values="0 0 0 0 0 0 0 0 0 0 0 0 0 0 0 0 0 0 127 0" result="hardAlpha"/>
<feOffset dx="-21" dy="15"/>
<feGaussianBlur stdDeviation="25"/>
<feComposite in2="hardAlpha" operator="out"/>
<feColorMatrix type="matrix" values="0 0 0 0 0.113438 0 0 0 0 0.148981 0 0 0 0 0.275 0 0 0 0.25 0"/>
<feBlend mode="normal" in2="effect1_backgroundBlur_2_566" result="effect2_dropShadow_2_566"/>
<feBlend mode="normal" in="SourceGraphic" in2="effect2_dropShadow_2_566" result="shape"/>
</filter>
<linearGradient id="paint0_linear_2_566" x1="244" y1="48" x2="244" y2="166" gradientUnits="userSpaceOnUse">
<stop stop-color="#FFE600"/>
<stop offset="1" stop-color="#FF7A00"/>
</linearGradient>
<linearGradient id="paint1_linear_2_566" x1="244" y1="48" x2="244" y2="166" gradientUnits="userSpaceOnUse">
<stop stop-color="white"/>
<stop offset="1" stop-color="white" stop-opacity="0"/>
</linearGradient>
<linearGradient id="paint2_linear_2_566" x1="244" y1="48" x2="244" y2="166" gradientUnits="userSpaceOnUse">
<stop stop-color="#FFD600"/>
<stop offset="1" stop-color="#FF7A00"/>
</linearGradient>
<linearGradient id="paint3_linear_2_566" x1="190" y1="50.5" x2="190" y2="285.5" gradientUnits="userSpaceOnUse">
<stop stop-color="white"/>
<stop offset="1" stop-color="white" stop-opacity="0"/>
</linearGradient>
<linearGradient id="paint4_linear_2_566" x1="190" y1="102" x2="190" y2="263" gradientUnits="userSpaceOnUse">
<stop stop-color="white"/>
<stop offset="1" stop-color="white" stop-opacity="0"/>
</linearGradient>
<linearGradient id="paint5_linear_2_566" x1="297" y1="105.5" x2="297" y2="231.5" gradientUnits="userSpaceOnUse">
<stop stop-color="white"/>
<stop offset="1" stop-color="white" stop-opacity="0"/>
</linearGradient>
<linearGradient id="paint6_linear_2_566" x1="289" y1="102" x2="289" y2="218.353" gradientUnits="userSpaceOnUse">
<stop stop-color="white"/>
<stop offset="1" stop-color="white" stop-opacity="0"/>
</linearGradient>
</defs>
</svg>
